# xmcd
#
# Track frame offsets:
#	150
#	24357
#	43530
#	59994
#	77549
#	99913
#	116979
#	135345
#	149838
#	163916
#	179856
#	197488
#	216339
#	232606
#
# Disc length: 3306 seconds
#
# Revision: 0
# Processed by: cddbd v1.5.2PL0 Copyright (c) Steve Scherf et al.
# Submitted via: EZCDAudioConverter 8.0.2.1
#
DISCID=cb0ce80e
DTITLE=Benjamin Rojas - Piano Amor CD2
DYEAR=1900
DGENRE=PIANO
TTITLE0=Mi Historia Entre Tus Dedos
TTITLE1=Hoy Tengo Ganas De Ti
TTITLE2=Otro Ocupa Mi Lugar
TTITLE3=Me Dediqué A Perderte
TTITLE4=Me Llamas
TTITLE5=Me Basta (Con Un Poco De Tu Amor)
TTITLE6=Para Que No Me Olvides
TTITLE7=Esta Cobardía
TTITLE8=Fuiste Mía Un Verano
TTITLE9=Llamarada
TTITLE10=Mi Buen Amor
TTITLE11=Morir De Amor
TTITLE12=Salvame
TTITLE13=Más Que Tu Amigo
EXTD=
EXTT0=
EXTT1=
EXTT2=
EXTT3=
EXTT4=
EXTT5=
EXTT6=
EXTT7=
EXTT8=
EXTT9=
EXTT10=
EXTT11=
EXTT12=
EXTT13=
PLAYORDER=
